<svg id="visual" viewBox="0 0 960 540" width="960" height="540" xmlns="http://www.w3.org/2000/svg" xmlns:xlink="http://www.w3.org/1999/xlink" version="1.1"><path d="M863 540L949 540L949 515L959 515L959 491L853 491L853 466L911 466L911 442L892 442L892 417L834 417L834 393L911 393L911 368L921 368L921 344L959 344L959 319L921 319L921 295L873 295L873 270L863 270L863 245L844 245L844 221L901 221L901 196L882 196L882 172L882 172L882 147L949 147L949 123L863 123L863 98L901 98L901 74L940 74L940 49L844 49L844 25L844 25L844 0L960 0L960 25L960 25L960 49L960 49L960 74L960 74L960 98L960 98L960 123L960 123L960 147L960 147L960 172L960 172L960 196L960 196L960 221L960 221L960 245L960 245L960 270L960 270L960 295L960 295L960 319L960 319L960 344L960 344L960 368L960 368L960 393L960 393L960 417L960 417L960 442L960 442L960 466L960 466L960 491L960 491L960 515L960 515L960 540L960 540Z" fill="#e9d8a6"></path><path d="M613 540L921 540L921 515L959 515L959 491L652 491L652 466L911 466L911 442L594 442L594 417L729 417L729 393L633 393L633 368L825 368L825 344L623 344L623 319L853 319L853 295L556 295L556 270L585 270L585 245L767 245L767 221L719 221L719 196L537 196L537 172L690 172L690 147L690 147L690 123L585 123L585 98L690 98L690 74L911 74L911 49L729 49L729 25L757 25L757 0L845 0L845 25L845 25L845 49L941 49L941 74L902 74L902 98L864 98L864 123L950 123L950 147L883 147L883 172L883 172L883 196L902 196L902 221L845 221L845 245L864 245L864 270L874 270L874 295L922 295L922 319L960 319L960 344L922 344L922 368L912 368L912 393L835 393L835 417L893 417L893 442L912 442L912 466L854 466L854 491L960 491L960 515L950 515L950 540L864 540Z" fill="#c8c797"></path><path d="M517 540L748 540L748 515L911 515L911 491L508 491L508 466L767 466L767 442L546 442L546 417L565 417L565 393L441 393L441 368L642 368L642 344L517 344L517 319L825 319L825 295L412 295L412 270L537 270L537 245L690 245L690 221L700 221L700 196L489 196L489 172L690 172L690 147L489 147L489 123L508 123L508 98L469 98L469 74L690 74L690 49L537 49L537 25L594 25L594 0L758 0L758 25L730 25L730 49L912 49L912 74L691 74L691 98L586 98L586 123L691 123L691 147L691 147L691 172L538 172L538 196L720 196L720 221L768 221L768 245L586 245L586 270L557 270L557 295L854 295L854 319L624 319L624 344L826 344L826 368L634 368L634 393L730 393L730 417L595 417L595 442L912 442L912 466L653 466L653 491L960 491L960 515L922 515L922 540L614 540Z" fill="#a9b58a"></path><path d="M450 540L690 540L690 515L882 515L882 491L469 491L469 466L757 466L757 442L517 442L517 417L556 417L556 393L402 393L402 368L585 368L585 344L450 344L450 319L815 319L815 295L402 295L402 270L460 270L460 245L652 245L652 221L661 221L661 196L489 196L489 172L661 172L661 147L489 147L489 123L450 123L450 98L431 98L431 74L642 74L642 49L479 49L479 25L585 25L585 0L595 0L595 25L538 25L538 49L691 49L691 74L470 74L470 98L509 98L509 123L490 123L490 147L691 147L691 172L490 172L490 196L701 196L701 221L691 221L691 245L538 245L538 270L413 270L413 295L826 295L826 319L518 319L518 344L643 344L643 368L442 368L442 393L566 393L566 417L547 417L547 442L768 442L768 466L509 466L509 491L912 491L912 515L749 515L749 540L518 540Z" fill="#8ba37f"></path><path d="M297 540L508 540L508 515L757 515L757 491L297 491L297 466L757 466L757 442L421 442L421 417L460 417L460 393L268 393L268 368L546 368L546 344L393 344L393 319L700 319L700 295L393 295L393 270L402 270L402 245L642 245L642 221L527 221L527 196L402 196L402 172L633 172L633 147L373 147L373 123L335 123L335 98L335 98L335 74L498 74L498 49L421 49L421 25L508 25L508 0L586 0L586 25L480 25L480 49L643 49L643 74L432 74L432 98L451 98L451 123L490 123L490 147L662 147L662 172L490 172L490 196L662 196L662 221L653 221L653 245L461 245L461 270L403 270L403 295L816 295L816 319L451 319L451 344L586 344L586 368L403 368L403 393L557 393L557 417L518 417L518 442L758 442L758 466L470 466L470 491L883 491L883 515L691 515L691 540L451 540Z" fill="#719075"></path><path d="M249 540L479 540L479 515L729 515L729 491L287 491L287 466L748 466L748 442L335 442L335 417L460 417L460 393L229 393L229 368L479 368L479 344L373 344L373 319L633 319L633 295L277 295L277 270L345 270L345 245L613 245L613 221L441 221L441 196L306 196L306 172L613 172L613 147L287 147L287 123L287 123L287 98L268 98L268 74L441 74L441 49L393 49L393 25L489 25L489 0L509 0L509 25L422 25L422 49L499 49L499 74L336 74L336 98L336 98L336 123L374 123L374 147L634 147L634 172L403 172L403 196L528 196L528 221L643 221L643 245L403 245L403 270L394 270L394 295L701 295L701 319L394 319L394 344L547 344L547 368L269 368L269 393L461 393L461 417L422 417L422 442L758 442L758 466L298 466L298 491L758 491L758 515L509 515L509 540L298 540Z" fill="#597d6a"></path><path d="M172 540L249 540L249 515L297 515L297 491L239 491L239 466L335 466L335 442L181 442L181 417L239 417L239 393L201 393L201 368L354 368L354 344L335 344L335 319L354 319L354 295L268 295L268 270L287 270L287 245L277 245L277 221L124 221L124 196L249 196L249 172L229 172L229 147L277 147L277 123L268 123L268 98L172 98L172 74L229 74L229 49L277 49L277 25L172 25L172 0L490 0L490 25L394 25L394 49L442 49L442 74L269 74L269 98L288 98L288 123L288 123L288 147L614 147L614 172L307 172L307 196L442 196L442 221L614 221L614 245L346 245L346 270L278 270L278 295L634 295L634 319L374 319L374 344L480 344L480 368L230 368L230 393L461 393L461 417L336 417L336 442L749 442L749 466L288 466L288 491L730 491L730 515L480 515L480 540L250 540Z" fill="#446b5f"></path><path d="M153 540L249 540L249 515L201 515L201 491L153 491L153 466L229 466L229 442L85 442L85 417L220 417L220 393L172 393L172 368L297 368L297 344L239 344L239 319L229 319L229 295L153 295L153 270L229 270L229 245L191 245L191 221L124 221L124 196L229 196L229 172L105 172L105 147L181 147L181 123L249 123L249 98L57 98L57 74L201 74L201 49L162 49L162 25L162 25L162 0L173 0L173 25L278 25L278 49L230 49L230 74L173 74L173 98L269 98L269 123L278 123L278 147L230 147L230 172L250 172L250 196L125 196L125 221L278 221L278 245L288 245L288 270L269 270L269 295L355 295L355 319L336 319L336 344L355 344L355 368L202 368L202 393L240 393L240 417L182 417L182 442L336 442L336 466L240 466L240 491L298 491L298 515L250 515L250 540L173 540Z" fill="#325853"></path><path d="M133 540L105 540L105 515L143 515L143 491L37 491L37 466L95 466L95 442L66 442L66 417L143 417L143 393L133 393L133 368L191 368L191 344L105 344L105 319L133 319L133 295L47 295L47 270L191 270L191 245L95 245L95 221L66 221L66 196L95 196L95 172L105 172L105 147L162 147L162 123L143 123L143 98L47 98L47 74L162 74L162 49L76 49L76 25L162 25L162 0L163 0L163 25L163 25L163 49L202 49L202 74L58 74L58 98L250 98L250 123L182 123L182 147L106 147L106 172L230 172L230 196L125 196L125 221L192 221L192 245L230 245L230 270L154 270L154 295L230 295L230 319L240 319L240 344L298 344L298 368L173 368L173 393L221 393L221 417L86 417L86 442L230 442L230 466L154 466L154 491L202 491L202 515L250 515L250 540L154 540Z" fill="#234546"></path><path d="M95 540L37 540L37 515L114 515L114 491L37 491L37 466L47 466L47 442L0 442L0 417L124 417L124 393L66 393L66 368L133 368L133 344L105 344L105 319L66 319L66 295L47 295L47 270L124 270L124 245L57 245L57 221L47 221L47 196L37 196L37 172L76 172L76 147L153 147L153 123L95 123L95 98L37 98L37 74L114 74L114 49L76 49L76 25L124 25L124 0L163 0L163 25L77 25L77 49L163 49L163 74L48 74L48 98L144 98L144 123L163 123L163 147L106 147L106 172L96 172L96 196L67 196L67 221L96 221L96 245L192 245L192 270L48 270L48 295L134 295L134 319L106 319L106 344L192 344L192 368L134 368L134 393L144 393L144 417L67 417L67 442L96 442L96 466L38 466L38 491L144 491L144 515L106 515L106 540L134 540Z" fill="#173338"></path><path d="M57 540L0 540L0 515L37 515L37 491L0 491L0 466L28 466L28 442L0 442L0 417L85 417L85 393L37 393L37 368L85 368L85 344L28 344L28 319L9 319L9 295L0 295L0 270L57 270L57 245L47 245L47 221L9 221L9 196L0 196L0 172L66 172L66 147L76 147L76 123L57 123L57 98L18 98L18 74L95 74L95 49L76 49L76 25L95 25L95 0L125 0L125 25L77 25L77 49L115 49L115 74L38 74L38 98L96 98L96 123L154 123L154 147L77 147L77 172L38 172L38 196L48 196L48 221L58 221L58 245L125 245L125 270L48 270L48 295L67 295L67 319L106 319L106 344L134 344L134 368L67 368L67 393L125 393L125 417L0 417L0 442L48 442L48 466L38 466L38 491L115 491L115 515L38 515L38 540L96 540Z" fill="#0d2229"></path><path d="M0 540L0 540L0 515L0 515L0 491L0 491L0 466L0 466L0 442L0 442L0 417L0 417L0 393L0 393L0 368L0 368L0 344L0 344L0 319L0 319L0 295L0 295L0 270L0 270L0 245L0 245L0 221L0 221L0 196L0 196L0 172L0 172L0 147L0 147L0 123L0 123L0 98L0 98L0 74L0 74L0 49L0 49L0 25L0 25L0 0L96 0L96 25L77 25L77 49L96 49L96 74L19 74L19 98L58 98L58 123L77 123L77 147L67 147L67 172L0 172L0 196L10 196L10 221L48 221L48 245L58 245L58 270L0 270L0 295L10 295L10 319L29 319L29 344L86 344L86 368L38 368L38 393L86 393L86 417L0 417L0 442L29 442L29 466L0 466L0 491L38 491L38 515L0 515L0 540L58 540Z" fill="#001219"></path></svg>